<svg viewBox="0 0 32 32" fill="none" xmlns="http://www.w3.org/2000/svg">
    <circle cx="16" cy="16" r="16" fill="#9391F7"/>
    <path d="M13.026 16.78C14.397 16.558 15.329 15.265 15.107 13.893 14.884 12.521 13.591 11.589 12.219 11.812 10.847 12.035 9.915 13.327 10.138 14.699 10.361 16.071 11.653 17.003 13.026 16.78Z" fill="white"/>
    <path d="M19.604 16.78C20.975 16.558 21.907 15.265 21.684 13.893 21.462 12.521 20.169 11.589 18.797 11.812 17.425 12.035 16.493 13.327 16.716 14.699 16.939 16.071 18.231 17.003 19.604 16.78Z" fill="white"/>
    <path d="M15.907 3.907C9.073 3.907 3.533 9.553 3.535 16.515H6.696C6.696 11.297 10.787 7.067 15.907 7.067 21.027 7.067 25.118 11.297 25.118 16.515H28.279C28.28 9.553 22.74 3.907 15.907 3.907Z" fill="white"/>
</svg>
