<svg viewBox="0 0 64 64" fill="none" xmlns="http://www.w3.org/2000/svg">
<circle xmlns="http://www.w3.org/2000/svg" cx="32" cy="32" r="32" fill="#E6007A"/>
<path d="M32.0049 20.0381C36.2199 20.0381 39.6369 18.0537 39.6369 15.6059C39.6369 13.1581 36.2199 11.1737 32.0049 11.1737C27.7899 11.1737 24.3729 13.1581 24.3729 15.6059C24.3729 18.0537 27.7899 20.0381 32.0049 20.0381Z" fill="white"/>
<path d="M32.0049 53.4338C36.2199 53.4338 39.6369 51.4495 39.6369 49.0016C39.6369 46.5538 36.2199 44.5695 32.0049 44.5695C27.7899 44.5695 24.3729 46.5538 24.3729 49.0016C24.3729 51.4495 27.7899 53.4338 32.0049 53.4338Z" fill="white"/>
<path d="M21.3692 26.1734C23.4767 22.5286 23.463 18.581 21.3386 17.3563C19.2142 16.1315 15.7836 18.0934 13.6761 21.7382C11.5686 25.383 11.5823 29.3306 13.7066 30.5554C15.831 31.7801 19.2617 29.8182 21.3692 26.1734Z" fill="white"/>
<path d="M50.3303 42.8692C52.4378 39.2244 52.4253 35.2775 50.3023 34.0536C48.1794 32.8296 44.7499 34.7922 42.6424 38.437C40.5349 42.0818 40.5474 46.0287 42.6704 47.2527C44.7933 48.4766 48.2228 46.514 50.3303 42.8692Z" fill="white"/>
<path d="M21.3397 47.252C23.4641 46.0273 23.4778 42.0797 21.3703 38.4349C19.2628 34.79 15.8321 32.8282 13.7077 34.0529C11.5834 35.2777 11.5697 39.2252 13.6772 42.8701C15.7847 46.5149 19.2153 48.4768 21.3397 47.252Z" fill="white"/>
<path d="M50.3043 30.5561C52.4272 29.3321 52.4398 25.3853 50.3322 21.7404C48.2247 18.0956 44.7953 16.133 42.6723 17.357C40.5494 18.5809 40.5368 22.5278 42.6444 26.1726C44.7519 29.8174 48.1813 31.78 50.3043 30.5561Z" fill="white"/>
</svg>
