<svg viewBox="0 0 32 32" xmlns="http://www.w3.org/2000/svg">
<circle cx="16" cy="16" r="16" fill="#E62058"/>
<path fill="#fff" d="m20.26197,14.61388l-7.59004,-0.00574c-2.06918,0 -3.79014,1.63607 -3.84407,3.73966c-0.00172,0.05622 0.04475,0.10268 0.10096,0.10268l7.59004,0.00459l0,0.00115c2.06918,0 3.79014,-1.63607 3.84407,-3.73966c0.00172,-0.05622 -0.04475,-0.10268 -0.10096,-0.10268z"/>
<path fill="#fff" d="m24.1089,8.85208l-11.4364,-0.00574c-2.06918,0 -3.79014,1.63607 -3.84407,3.73966c-0.00172,0.05622 0.04475,0.10268 0.10096,0.10268l11.4364,0.00459l0,0.00115c2.06918,0 3.79014,-1.63607 3.84407,-3.73966c0.00172,-0.05622 -0.04475,-0.10268 -0.10096,-0.10268z"/>
<circle fill="#fff" r="1.92347" cy="22.26874" cx="10.75133"/>
</svg>
