<svg viewBox="0 0 48 48" fill="none" xmlns="http://www.w3.org/2000/svg"><circle cx="24" cy="24" r="24" fill="#4D3DFF"></circle><g clip-path="url(#clip0_3872_1317)"><path d="M27.36 8.38379L27.264 8.57579C30.592 10.0158 32.48 12.9918 32.48 16.2558C32.48 19.7758 30.176 22.9758 25.696 25.6958L24.96 26.1438C21.6 28.1918 19.904 30.4958 19.904 33.2798C19.904 36.8638 22.72 39.4878 26.592 39.4878C32.8 39.4878 40 32.8638 40 24.0318C40 22.5918 39.808 21.1838 39.456 19.8398L39.232 19.9038C39.328 20.6398 39.36 21.1838 39.36 21.6958C39.36 26.9118 36.416 31.3918 31.488 34.3678L31.008 34.6558C29.952 35.2638 29.056 35.6158 28.16 35.6158C26.976 35.6158 26.08 34.8478 26.08 33.7278C26.08 32.7678 26.72 31.8078 28.8 30.5918L29.408 30.2398C34.016 27.5518 36.576 23.7758 36.576 19.5838C36.576 14.2718 32.608 9.88779 27.36 8.38379ZM20.64 39.6478L20.736 39.4558C17.408 38.0158 15.52 35.0398 15.52 31.7758C15.52 28.2558 17.824 25.0558 22.304 22.3358L23.04 21.8878C26.4 19.8398 28.096 17.5358 28.096 14.7518C28.096 11.1678 25.28 8.54379 21.408 8.54379C15.2 8.54379 8 15.1678 8 23.9998C8 25.4398 8.192 26.8478 8.544 28.1918L8.768 28.1278C8.672 27.3918 8.64 26.8478 8.64 26.3358C8.64 21.1198 11.584 16.6398 16.512 13.6638L16.992 13.3758C18.048 12.7678 18.944 12.4158 19.84 12.4158C21.024 12.4158 21.92 13.1838 21.92 14.3038C21.92 15.2638 21.28 16.2238 19.2 17.4398L18.592 17.7918C13.984 20.4798 11.424 24.2558 11.424 28.4478C11.424 33.7598 15.392 38.1438 20.64 39.6478Z" fill="white"></path></g><defs><clipPath id="clip0_3872_1317"><rect width="32" height="32" fill="white" transform="translate(8 8)"></rect></clipPath></defs></svg>
