<svg version="1.1" viewBox="0 0 32 32" xmlns="http://www.w3.org/2000/svg">
  <circle cx="16" cy="16" r="16" fill="#FF0420"/>
  <path class="st1" d="m11.341 20.25c-0.96 0-1.7408-0.2304-2.3424-0.6784-0.6016-0.4608-0.9088-1.1136-0.9088-1.9456 0-0.1792 0.0256-0.3968 0.064-0.6528 0.1024-0.576 0.256-1.2672 0.448-2.0864 0.5504-2.2016 1.9584-3.3024 4.224-3.3024 0.6144 0 1.1776 0.1024 1.664 0.32 0.4864 0.2048 0.8704 0.512 1.152 0.9216s0.4224 0.8832 0.4224 1.4464c0 0.1664-0.0256 0.384-0.064 0.64-0.128 0.7168-0.2688 1.408-0.4352 2.0864-0.2816 1.1008-0.768 1.92-1.4592 2.4704-0.6912 0.5376-1.6128 0.8064-2.7648 0.8064zm0.1792-1.728c0.448 0 0.832-0.1408 1.1392-0.3968 0.32-0.2688 0.5504-0.6656 0.6912-1.216 0.192-0.7552 0.3328-1.408 0.4224-1.9712 0.0384-0.1664 0.0512-0.3456 0.0512-0.5248 0-0.7296-0.384-1.1008-1.1392-1.1008-0.448 0-0.832 0.1408-1.152 0.3968-0.32 0.2688-0.5376 0.6656-0.6784 1.216-0.1536 0.5376-0.2944 1.1904-0.4352 1.9712-0.0384 0.1664-0.0512 0.3328-0.0512 0.512-0.0128 0.7424 0.384 1.1136 1.152 1.1136z" fill="white"/>
  <path class="st1" d="m16.602 20.134c-0.0896 0-0.1536-0.0256-0.2048-0.0896-0.0384-0.064-0.0512-0.1408-0.0384-0.2176l1.664-7.808c0.0128-0.0896 0.064-0.1664 0.1408-0.2176 0.0768-0.064 0.1536-0.0896 0.2304-0.0896h3.2c0.896 0 1.6 0.192 2.1376 0.5504 0.5504 0.3712 0.8192 0.9088 0.8192 1.6 0 0.2048-0.0256 0.4096-0.0768 0.6272-0.2048 0.9216-0.6016 1.6-1.216 2.048-0.6016 0.448-1.4336 0.6656-2.4832 0.6656h-1.6256l-0.5504 2.6368c-0.0256 0.0896-0.064 0.1664-0.1408 0.2176-0.0768 0.064-0.1536 0.0896-0.2304 0.0896h-1.6384zm4.2496-4.5952c0.3456 0 0.6272-0.0896 0.8832-0.2816s0.4224-0.448 0.512-0.7936c0.0256-0.1408 0.0384-0.256 0.0384-0.3584 0-0.2304-0.0768-0.4096-0.2048-0.5376-0.1408-0.128-0.3712-0.192-0.704-0.192h-1.4464l-0.4608 2.1504h1.3824z" fill="white"/>
</svg>
