<svg xmlns="http://www.w3.org/2000/svg" fill="none" viewBox="0 0 64 64"><circle cx="32" cy="32" r="32" fill="#3d8130"/><path fill="#3d8130" d="m18.607 24.987-1.483 2.888-1.534 3.03-1.083 2.835-.721 3.017-.452 3.3-.27 2.848-.31 1.87.31 1.456.528 1.25.98 1.728 2.269 1.418 1.675.657c.413.13.851.258 1.225.374l1.985.361 2.836.129h2.346c.27 0 2.643-.129 2.656-.142l3.016.052 2.913-.361 1.264-.529.863-1.031.039-1.367c-.052-.116-.22-.554-.27-.721-.04-.116-.62-.8-1.148-1.392l-.013-.013c-.232-.336-.606-.916-.606-1.109s.232-.76.284-.864l.026-.051 1.211-.348.8.58.721-.4.813-.812 1.418-1.044 1.289-.735 1.018-.193 1.34.915-.09-.103.555-.49.515-.85v-.89l-.103-.258-.657.529-1.173.335h-.026l-1.805-.039-2.617.27-.825.091-.631-.09-1.689-.232-1.908-.361-3.08-.503h-.014l-2.951-1.225-2.591-1.495-1.586-1.07-.155-.76.207-.71.631-.463 1.47.335 3.21.992c1.572.323 3.97.8 4.124.812.078 0 .387.052 1.16.18.826.13 1.96.323 2.192.323.4 0 3.48.168 3.661.18.168 0 2.668-.05 2.94-.05.18 0 1.146-.323 1.726-.53l.877-1.044.838-1.456c.051-.426 0-.851-.155-1.25a2.7 2.7 0 0 0-1.083-1.316c-.258.49-.593.8-.98.941-.141.052-.309.078-.463.078-.232 0-.465-.052-.658-.155l.13-.232c.283.142.605.168.914.065.348-.13.645-.439.877-.916a2.7 2.7 0 0 1-.903.168c-.193 0-.386-.013-.58-.064l.026-.13.026-.128c.013 0 1.005.245 1.753-.335.529-.4.825-1.122.877-2.114l-.864 1.018-1.044.477c-.464.116-2.011.503-2.153.503-.051 0-.258-.026-.76-.116-.632-.104-1.573-.245-1.818-.245-.438 0-1.057-.477-1.121-.529l-.078-.052.49-1.43 1.354-1.534 1.43-1.019h1.78l1.675.18.722.826.348.515v-1.392l-1.392-.502c-.155-.026-1.534-.22-1.87-.22-.322 0-1.56.194-1.765.22l-1.792 1.16-.142-.22 1.83-1.185h.026c.065-.013 1.457-.232 1.83-.232.362 0 1.857.219 1.922.232l.025.012 1.508.555.142.077.013-.103-.709-.619-1.276-.619-1.547-.128-1.779.309-.709.31-.103-.246.748-.322 1.83-.322 1.624.142.065.038-.49-.76-1.38-1.212.014-.013-5.363.155-1.495.193.76 1.096.387.683-.193.683-.258-.077.168-.58-.336-.58-.812-1.173.052-.039a89 89 0 0 1-2.14.258c-.116 0-4.421.322-4.602.322a7.4 7.4 0 0 1-1.07-.142c-.064-.038-2.939-1.082-3.042-1.147s-1.109-1.031-1.109-1.031l-1.959-.606-1.715 2.114zm20.921 5.917c.258.116.49.258.735.4l1.47.167.837-.18.052.258-.877.18-1.018-.116c.438.322.838.683 1.199 1.096.258.296.49.619.683.954l-.232.129a5.6 5.6 0 0 0-.825-1.083 7.6 7.6 0 0 0-1.418-1.16l-.748-.426zm-14.734-4.821 1.173-1.121 1.018-.838 1.457-.284 1.534-.052h1.637l1.354.052 2.746.052.863.528 1.057.967.606.748.284 1.52-.258.052-.27-1.456-.555-.697-1.018-.928-.774-.477-2.153-.038.941.515c.503.258 1.367.722 1.457.916.064.103.748.773 1.38 1.366l.012.013.967 1.25.142 1.032-.258.038-.129-.954-.915-1.186c-.322-.296-1.328-1.25-1.418-1.43-.078-.104-.748-.49-1.34-.8l-1.38-.76-1.328-.039h-1.624l-1.521.039-1.354.258-.966.786-1.096 1.057-.116.696.232.206.58-.31.954-1.185 1.727-.657 2.243-.232 1.895.18 2.462 1.276 1.018.606.98 1.302.451 1.418.658.425v.58l-.606.555-1.083.45-.464.388-.49.799-.245.4-.026.012c-.322.168-.889.464-1.044.464-.116.026-.838.348-1.482.67l-.065.014c-.051.013-1.185.36-1.469.412l-.039-.258c.245-.038 1.315-.36 1.418-.4.645-.309 1.444-.683 1.586-.683a6.4 6.4 0 0 0 .902-.425l.116-.193.593-.967.142-.116c-.413-.039-.954-.103-1.096-.18-.064-.026-.45-.078-2.475-.078-.503 0-1.688-.27-1.856-.322a155 155 0 0 0-1.354-.4l-.025-.013-.026-.026c-.013-.012-1.134-1.082-1.96-1.56l.13-.231c.799.464 1.817 1.418 1.997 1.585.194.052 1.2.361 1.328.4.142.052 1.302.31 1.766.31 2.437 0 2.54.064 2.604.115.09.052.67.116 1.16.155l-.013.09.194-.167 1.083-.451.477-.439v-.322l-.336-.22.013.04-1.121.412-1.547.18c-.077 0-.413.013-.786.013-.439 0-.916-.013-1.057-.064-.207-.065-1.509-.348-2.153-.49h-.013l-.013-.013c-.812-.438-1.817-.992-1.895-1.134-.064-.078-.567-.335-.992-.542h-.013l-1.431-.838-.194.04-.025-.169-.451-.257-.697.373-.49-.425zm.593 6.175.064.258-.876.206-.438.103-.026-.103-.039-.155zm.554 1.224-.064.258a2.4 2.4 0 0 0-.902 0c-.49.09-1.212.374-1.908 1.173l-.194-.167c1.431-1.676 3.004-1.29 3.068-1.264"/><path fill="#3d8130" d="M27.707 26.96c.078-.013 1.908-.232 2.14-.232.09 0 .348.025.683.051.452.039 1.212.103 1.328.09.18-.051 1.985-.206 2.192-.232l1.07-.077-.22-.129-2.41-1.25-1.818-.18-2.191.218-1.624.62-.825 1.03.528.31zM34.063 26.908c-.8.077-2.024.193-2.153.22-.116.025-.529 0-1.405-.078-.297-.026-.58-.052-.658-.052-.18 0-1.572.168-2.101.22l-.85.154 1.16.683c.36.168.98.477 1.082.632.103.103.98.606 1.792 1.044.206.039 1.908.413 2.166.503.18.064 1.173.051 1.753.038l1.52-.18.916-.348-.051-.026-.465-1.47-.915-1.224-.541-.322.013.129zM45.973 26.805l-.644-.722-1.573-.18h-1.675l-1.354.966-1.29 1.457-.412 1.199c.207.155.62.412.89.412s1.147.142 1.856.258c.335.052.67.103.722.103.116-.013 1.328-.31 2.075-.49l.954-.438.76-.876-.064-.413-2.346-.954-3.003-.09.013-.258 3.055.09 2.526 1.032.103.657v-.838zM43.163 41.926l-.876.167-1.238.71-1.392 1.03-.387.387.877.619.064.49-.593.593-.18-.18.503-.504-.026-.245-.825-.58-.245.245-.516.284-.142.696.722.632 1.044-.039c.194-.142.516-.348.67-.36.156-.091.31-.194.452-.31.348-.271.49-.361.593-.361.31-.155.606-.323.89-.516l.038-.026 1.263.142.439.438-.09.09c-.271.297-.58.684-.593.774a.4.4 0 0 1-.04.18l.297-.167 1.392-.993.155.22-1.418 1.005-.657.361c-.026.039-.052.077-.065.09l-.051-.038-1.006.554-.696 1.005-.245.593.503.71.554.63.658.078.606-.129-.013-.129.67-1.057 1.263-1.224.18.193-1.25 1.212-.605.94.038.71.645.438.85.09.477-.141-.09-.142.065-.078c.025-.038.721-.825.863-.953.103-.104.696-.787.993-1.122l.193.168c-.038.038-.863 1.005-1.005 1.134-.103.103-.606.657-.786.864l.45.67h.761l.658-.297.541-.799.722-.773.193.18-.722.76-.554.839-.786.348h-.954l-.4-.593-.606.18-.966-.09-.8-.554-.025-.516-.606.129-.8-.103-.605-.696-.903-.542-.94-1.044-.233-1.624.258-.039.193 1.393 1.122-.89 1.212-1.16.696-.954-.336-.039c-.373.245-.812.516-.966.542-.155.09-.31.193-.451.31-.361.27-.503.36-.593.36-.194.09-.387.206-.555.335l-.038.026-1.225.052-.915-.812.129-.62-.09.052-.826-.593-.966.284c-.104.232-.18.464-.232.709.012.103.296.58.554.954.348.387 1.147 1.302 1.199 1.495.038.142.206.554.27.71l.013.025-.038 1.753.502.748c.258.154 2.153 1.263 2.372 1.392.155.09 1.521.477 2.36.709l2.822.27 2.27-.309 1.946-.89 1.057-1.018-.245-.902-1.302-2.423-.941-1.431-1.637-1.78-2.411-1.327-.36-.773z"/><path fill="#983b1f" d="m45.213 36.705-.039.013c-.258.09-1.572.554-1.856.554-.27 0-2.913.039-2.94.052-.038 0-3.26-.18-3.66-.18-.258 0-1.302-.168-2.23-.323a16 16 0 0 0-1.122-.168c-.18 0-3.519-.683-4.19-.812h-.012l-3.21-.992-1.34-.297-.464.348-.155.555.116.593 1.495 1.005 2.565 1.482 2.914 1.212 3.055.49 1.908.36 2.281.31 3.43-.36h.012l1.792.038 1.083-.31.915-.734.748-1.147.167-.529-.245-.593c-1.083.98-1.199 1.018-1.263 1.031l-1.109.271-3.08.142h-.013l-3.223-.18-3.197-.58-2.578.05h-.013l-2.681-.682-2.372-.825-1.263-.774.141-.219 1.25.76 2.334.813 2.643.67 2.578-.052h.013l3.196.58 3.197.181 3.055-.129 1.07-.27c.065-.026.426-.31 1.186-1.006.103-.09.168-.155.194-.18l.98-1.341.334-.632c-.051-.219-.103-.425-.128-.644a3.7 3.7 0 0 0-.439-.568c0 .116 0 .232-.026.348v.026l-.889 1.534z"/><path fill="#000" d="m51.22 50.382-1.315-2.45-.954-1.456-1.65-1.843-2.385-1.302-.348-.748-.064.039s.219.799.374.876c.154.078 2.217 1.135 2.32 1.186.103.052 1.895 2.192 1.895 2.192l1.444 2.513.863 1.934s-1.108 1.134-1.173 1.147-2.204 1.057-2.268 1.057c-.065 0-2.14.232-2.256.206-.116-.038-2.669-.257-2.862-.27-.206-.013-2.565-.954-2.565-.954l-2.037-1.225-.58-.902-.812.915s-1.147.58-1.302.58-2.965.374-3.184.374h-5.659s-5.595-.103-5.84-.22c-.077-.038-.528-.18-1.121-.373l-.477-.09-.748-.284c-.915-.283-1.74-.528-1.74-.528L14.47 49.26s-.967-1.675-1.006-1.766c-.038-.09-.631-1.495-.631-1.56s-.207-1.185-.207-1.185l.413-2.566.18-2.694.439-2.939s.734-2.952.747-3.08c.013-.142 1.2-3.056 1.2-3.056l1.25-2.256 1.65-3.403 1.817-2.565 1.766-2.101.116.039-.206-.168-1.715 2.127-1.907 2.771-1.496 2.914-1.534 3.016-1.095 2.862-.735 3.042-.451 3.326-.271 2.849-.322 1.92.322 1.521.554 1.29 1.019 1.804 2.333 1.47 2.462.967 2.514.464 2.874.141h2.346c.271 0 2.527-.129 2.669-.142l3.029.052h.013l2.952-.36h.013l1.353-.568.696-.838.58.864.026.013c.026.012 2.179 1.263 2.398 1.405.232.142 2.204.683 2.436.735l2.888.27 2.32-.322h.013l2.01-.915.027-.013 1.198-1.16z"/><path fill="#000" d="m20.321 22.19-1.818 2.565-1.65 3.403-1.25 2.256s-1.186 2.913-1.199 3.055-.747 3.081-.747 3.081l-.439 2.94-.18 2.693-.413 2.566s.207 1.121.207 1.186.593 1.47.631 1.56 1.006 1.765 1.006 1.765l2.307 1.496s.825.245 1.74.528l-1.675-.657-2.27-1.418-.979-1.728-.528-1.25-.31-1.457.31-1.869.27-2.849.452-3.3.721-3.016 1.083-2.836 1.534-3.03 1.483-2.887 1.895-2.745 1.714-2.114-.116-.04zM43.215 41.655l-1.019.193-1.289.735-1.417 1.044-.813.812-.721.4-.8-.58-1.212.348-.025.051c-.052.116-.284.67-.284.864s.387.786.606 1.109l.013.013c.528.593 1.108 1.276 1.147 1.392.039.167.22.606.27.722l-.038 1.366-.864 1.031-1.263.529-2.913.36-3.016-.05c-.026 0-2.398.141-2.656.141h-2.346l-2.836-.129-1.985-.36c.58.18 1.044.334 1.121.373.232.116 5.84.22 5.84.22h5.659c.219 0 3.042-.375 3.184-.375.154 0 1.302-.58 1.302-.58l.812-.915.58.902 2.037 1.225s2.359.928 2.565.954c.206.013 2.746.232 2.862.27.116.04 2.191-.206 2.255-.206s2.205-1.031 2.27-1.057c.064-.013 1.172-1.147 1.172-1.147l-.863-1.934-1.444-2.513s-1.792-2.14-1.895-2.192c-.103-.051-2.166-1.108-2.32-1.186-.155-.077-.374-.876-.374-.876l.064-.039v-.013zm1.495 1.856 2.41 1.328 1.612 1.779.941 1.43 1.302 2.424.245.902-1.057 1.019-1.947.89-2.268.309-2.823-.271c-.838-.232-2.205-.619-2.36-.71-.218-.128-2.113-1.237-2.371-1.391l-.503-.748.039-1.753v-.013a10 10 0 0 1-.271-.709c-.052-.193-.85-1.108-1.199-1.495-.258-.387-.554-.864-.554-.954.051-.245.129-.477.232-.71l.967-.283.825.593.09-.051-.129.618.915.813 1.225-.052.038-.026c.168-.129.361-.245.555-.335.103 0 .232-.09.593-.36.142-.117.296-.22.451-.31.155-.013.606-.297.967-.542l.335.039-.696.954-1.212 1.16-1.121.89-.194-1.393-.258.039.233 1.624.94 1.044.903.542.606.696.799.103.606-.129.026.516.799.554.967.09.605-.18.4.593h.954l.786-.348.555-.838.721-.76-.193-.181-.722.773-.541.8-.658.296h-.76l-.451-.67c.18-.207.683-.76.786-.864.142-.142.967-1.096 1.005-1.134l-.193-.168c-.296.348-.89 1.018-.992 1.121-.142.142-.838.929-.864.954l-.065.078.09.142-.476.141-.851-.09-.645-.438-.038-.71.606-.94 1.25-1.212-.18-.193-1.264 1.224-.67 1.057.013.13-.606.128-.657-.077-.555-.632-.503-.709.245-.593.697-1.005 1.005-.554.052.038c.012-.026.038-.051.064-.09l.657-.361 1.418-1.005-.154-.22-1.392.993-.297.167a.4.4 0 0 0 .039-.18c.013-.103.322-.477.593-.773l.09-.09-.438-.439-1.264-.142-.038.026c-.284.194-.58.374-.89.516-.103 0-.245.103-.593.36-.142.117-.296.22-.451.31-.155.013-.464.22-.67.361l-1.044.039-.722-.632.142-.696.515-.284.245-.245.825.58.026.245-.503.503.18.18.593-.592-.064-.49-.876-.619.386-.387 1.392-1.03 1.238-.71.877-.168 1.185.813zm-3.532 5.762-.348-.206-.773-.85 1.186-.929 1.224-1.186.8-1.108.45.051.194.194c-.245.27-.58.67-.58.85a1.1 1.1 0 0 1-.206.413l-1.122.618-.748 1.07-.309.774zM44.336 23.002l.658.864s.322.503.438.541 1.186.658 1.186.658l.438.49-.09.283-.335-.103.051 1.663h.103v-1.495l.297.167.077-.631-.838-.735-.902-.439.039-.025-.696-1.096-1.405-1.237-.155.18h.142zM46.528 29.796s-.477.953-.529.98c-.051.038-.477.218-.477.218l.039.232a5 5 0 0 1 .554.465c.026.038.31.605.542 1.03h.232a2.9 2.9 0 0 0-1.238-1.546c.026-.052.052-.116.077-.168.04-.026.09-.051.13-.09.631-.477.953-1.302.992-2.462v-.812l-.155-.232.039 1.25z"/><path fill="#000" d="m44.568 23.337.49.76-.064-.038-1.624-.142-1.83.323-.748.322.103.245.709-.31 1.779-.309 1.546.129 1.276.619.71.619-.013.103-.142-.078-1.508-.554-.026-.013c-.065-.013-1.547-.232-1.92-.232-.375 0-1.767.22-1.831.232h-.026l-1.83 1.186.141.22 1.792-1.161c.206-.026 1.444-.22 1.766-.22.335 0 1.715.207 1.87.22l1.391.503v1.418l-.348-.516-.722-.825-1.675-.18h-1.78l-1.43 1.018-1.354 1.534-.49 1.43.078.052c.064.052.683.529 1.121.529.245 0 1.2.155 1.818.245.503.077.709.116.76.116.142 0 1.69-.387 2.153-.503l1.044-.477.864-1.018c-.052.992-.348 1.714-.876 2.114-.761.58-1.754.335-1.754.335l-.026.129-.025.129c.193.038.387.064.58.064.31 0 .619-.051.902-.167-.232.477-.528.786-.876.915a1.2 1.2 0 0 1-.916-.065l-.129.233a1.462 1.462 0 0 0 1.121.077c.388-.142.71-.451.98-.941.49.31.877.773 1.084 1.315h.038c-.219-.426-.515-.993-.541-1.032a6 6 0 0 0-.555-.464l-.038-.232s.425-.18.477-.219c.051-.038.528-.98.528-.98l.206-1.121-.038-1.25-.052-1.663.335.103.09-.284-.438-.49s-1.07-.631-1.186-.657c-.116-.039-.438-.541-.438-.541l-.657-.864-1.006-.902h-.142l-.012.012zm2.011 5.221-.103-.657-2.526-1.032-3.055-.09-.013.258 3.003.09 2.346.954.065.413-.76.876-.955.438c-.747.18-1.96.477-2.075.49-.052 0-.387-.051-.722-.103-.709-.116-1.585-.258-1.856-.258-.258 0-.67-.258-.89-.412l.413-1.199 1.289-1.457 1.353-.966h1.676l1.573.18.644.722.606.915v.722c-.013.039-.013.077-.013.116M38.342 41.152l.825-.09h-1.456zM45.677 41.114l-.786 1.276-.336.18.078.09.593-.515.567-.954v-.13h-.116c.013.027.013.04 0 .053"/><path fill="#000" d="M45.677 41.114c0-.013.013-.04.013-.052h-.142v.052l-.516.85-.554.49.09.103.013.013.335-.18c-.012 0 .735-1.2.761-1.276M46.914 33.212l.116.167a3 3 0 0 0-.141-.657h-.232z"/><path fill="#000" d="M47.752 34.655c-.013.065-.167.58-.206.658-.038.09-1.25 1.753-1.25 1.753l.283.58s.052.412.013.477l-1.108 1.727.167.464s.039.58.026.76h.116v-.889l-.142-.386.116-.09.787-1.212.206-.658-.31-.76.04-.039 1.005-1.38.4-.734-.014-.052a5 5 0 0 1-.129-.644c0-.052 0-.194-.67-.902l-.051.051.4.567s.334.645.321.71"/><path fill="#000" d="M46.657 32.722h-.039c.155.4.206.825.155 1.25l-.851 1.457-.877 1.044c-.593.206-1.56.528-1.727.528-.27 0-2.771.039-2.94.052-.192-.013-3.26-.18-3.66-.18-.232 0-1.366-.181-2.191-.323-.761-.129-1.083-.18-1.16-.18-.168-.013-2.553-.49-4.126-.812l-3.21-.993-1.469-.335-.632.464-.206.709.155.76 1.585 1.07 2.592 1.496 2.951 1.224h.013l3.081.503 1.908.361 1.689.232h1.47l2.616-.27 1.805.038h.026l1.172-.335.658-.529.103.258v.838h.142c.013-.18-.026-.76-.026-.76l-.168-.465 1.11-1.727c.038-.064-.014-.477-.014-.477l-.283-.58s1.224-1.663 1.25-1.753c.039-.09.18-.593.206-.657.013-.065-.322-.71-.322-.71l-.4-.567-.116-.167c-.013.026-.129-.194-.27-.464m.374 1.314c.012-.116.025-.232.025-.348.168.168.31.361.439.568.025.219.064.438.129.644l-.336.632-.98 1.34c-.025.026-.102.09-.193.18-.76.697-1.108.968-1.186 1.006l-1.07.271-3.055.129-3.197-.18-3.196-.58h-.013l-2.578.051-2.643-.67-2.333-.812-1.25-.76-.142.218 1.263.774 2.372.825 2.681.683h.013l2.578-.052 3.197.58 3.223.18h.012l3.081-.141 1.109-.27c.051-.014.18-.052 1.263-1.032l.245.593-.167.529-.748 1.147-.915.735-1.083.309-1.792-.039h-.013l-3.429.361-2.281-.31-1.908-.36-3.055-.49-2.914-1.212-2.565-1.482-1.495-1.005-.116-.593.155-.555.464-.348 1.34.297 3.21.992h.013c.67.142 3.996.812 4.19.812.064 0 .605.09 1.12.168.929.155 1.973.322 2.23.322.4 0 3.623.18 3.662.18.026 0 2.668-.05 2.939-.05.283 0 1.598-.465 1.856-.555l.039-.013.928-1.109.89-1.534z"/><path fill="#000" d="M24.975 33.74c.296-.064.605-.064.902 0l.064-.258c-.064-.013-1.637-.412-3.068 1.264l.194.167c.696-.812 1.418-1.083 1.908-1.173M24.562 32.722l.877-.207-.052-.257-1.315.309.039.155zM24.137 32.825l.425-.103h-.451zM40.16 31.562c.515.335.992.721 1.418 1.16h.36a7.4 7.4 0 0 0-1.198-1.096l1.018.116.877-.18-.052-.258-.838.18-1.47-.167a5 5 0 0 0-.734-.4l-.116.232z"/><path fill="#000" d="m42.39 33.805.232-.13a6 6 0 0 0-.683-.953h-.361q.465.503.812 1.082M25.813 27.063l.45.258.026.167.194-.039 1.43.838h.014c.425.207.928.464.992.542.09.129 1.083.683 1.895 1.134l.013.013h.013c.657.142 1.946.425 2.153.49.154.051.631.064 1.057.064.373 0 .722-.013.786-.013l1.547-.18 1.121-.413-.012-.038.335.219v.322l-.477.439-1.083.45-.194.168.013-.09c-.49-.039-1.07-.116-1.16-.155-.064-.038-.167-.116-2.604-.116-.464 0-1.624-.258-1.766-.31-.129-.038-1.134-.347-1.327-.399-.168-.167-1.186-1.108-1.998-1.585l-.13.232c.838.49 1.96 1.547 1.96 1.56l.026.025.026.013c.012 0 1.224.361 1.353.4.155.051 1.34.322 1.856.322 2.024 0 2.398.052 2.475.077.142.078.684.142 1.096.18l-.142.117-.593.967h.31l.49-.8.464-.386 1.082-.451.606-.555v-.58l-.657-.425-.451-1.418-.98-1.302-1.018-.606-2.462-1.276-1.896-.18-2.242.231-1.728.658-.954 1.186-.58.31-.232-.207.116-.696 1.096-1.057.967-.787 1.353-.257 1.521-.039h1.624l1.328.039 1.38.76c.593.31 1.276.696 1.34.8.09.18 1.096 1.134 1.418 1.43l.915 1.186.13.954.257-.039-.142-1.03-.967-1.251-.012-.013c-.632-.58-1.315-1.25-1.38-1.366-.09-.194-.954-.658-1.456-.916l-.941-.515 2.152.038.774.477 1.018.928.554.697.271 1.456.258-.051-.284-1.521-.605-.748-1.057-.967-.864-.529-2.746-.051-1.353-.052h-1.637l-1.534.052-1.457.284-1.018.837-1.173 1.122-.155.928.49.425zm10.054-.052.916 1.225.463 1.47.052.025-.915.348-1.521.18c-.58.014-1.573.026-1.753-.038-.258-.09-1.96-.451-2.166-.503-.812-.438-1.702-.94-1.792-1.044-.103-.142-.722-.451-1.083-.632l-1.16-.683.851-.155c.529-.064 1.92-.219 2.101-.219.078 0 .361.026.658.052.876.077 1.289.103 1.405.077a50 50 0 0 1 2.152-.219l1.264-.09-.013-.129zm-9.023-1.16 1.624-.619 2.191-.219 1.818.18 2.41 1.251.22.129-1.07.077c-.206.013-2.011.18-2.192.232-.116.026-.863-.051-1.327-.09-.335-.026-.593-.052-.684-.052-.232 0-2.062.22-2.14.233l-1.16.219-.528-.31z"/><path fill="#000" d="M35.042 32.915a8 8 0 0 1-.902.425c-.142 0-.941.374-1.586.684-.116.038-1.173.36-1.418.4l.039.257c.27-.052 1.418-.4 1.47-.412l.012-.013c.645-.31 1.38-.645 1.483-.67.155-.014.722-.297 1.044-.465l.026-.013.245-.4h-.31zM36.28 22.358l-.168.116c.077-.013.155-.013.232-.026zM36.886 23.685l.335.58-.168.58.258.078.193-.683-.386-.684-.76-1.095c-.078.013-.156.013-.233.026l-.051.038z"/><path fill="#c82727" d="m44.775 23.376 1.147-.116s2.861.85 2.978.967 1.56.747 1.56.747l.85.078.116-.774-.632-.902-1.817-1.34-2.075-1.006-1.302-.451-.465-6.574-1.095-1.638-1.637-1.34-2.114-1.044-2.192-.039-4.125.516-3.79.747-.219-.644a7 7 0 0 0-.89-.168c-.218 0-2.23.619-2.23.619l-1.224.644-.258.748-1.753.967-1.418 1.779-.812 1.714s-.412 1.715-.412 1.818.219 1.044.373 1.108c.155.065 1.302.374 1.302.374l1.509.748 2.178 1.263 2.707.89s2.565-.18 2.823-.18 4.125-.413 4.344-.413 4.46-.335 4.577-.335c.115 0 2.642-.04 2.642-.04l1.005.89z"/><path fill="#000" d="m43.77 27.024.334.709.206.812-.103.516-.438 1.121-1.392.232-2.243-.4-.27-.786.102-.709.232-1.121.58-.645.374.206 2.475.065M33.56 26.92l.412.787.039.954-.206.85-.438.684-.71.039-2.72-.812-1.082-.954.142-.606.373-.58.503-.4 1.908.052c-.026-.013 1.702.129 1.779-.013M51.078 23.48l-1.057-.929-1.521-1.018-2.5-.916-.349-.141-.103-2.153c-.129-1.057-.31-2.656-.31-2.784 0-.181-.09-1.496-.09-1.547v-.026l-.747-1.354-1.25-1.289-1.921-1.096-1.599-.45H37.44l-2.153.27c-.864.142-2.217.361-2.372.361-.232 0-2.037.412-2.243.451l-.631.168.103-.052-.206-.412-.67-.258-.98.09-1.573.387-1.186.76-.245.632.168.065-.658.167h-.026l-1.392.877-.967 1.095-.876 1.47-.696 2.397v.864l.45.8 2.824 1.005.94.85 2.102.955 1.856.464 3.468-.232 5.014-.542 3.571-.27 2.965.038 3.132.451 2.475 1.173.116-.232-2.5-1.186-3.184-.45-3.004-.052-3.584.27-5.014.542-3.416.219-1.779-.438-2.05-.941-.953-.864-2.785-.993-.36-.644v-.76l.67-2.321.85-1.418.929-1.057 1.327-.838 5.853-1.534c.76-.167 2.036-.451 2.191-.451.232 0 2.191-.322 2.41-.361l2.115-.27h2.14l1.508.438 1.869 1.07 1.199 1.237.696 1.276c.026.477.09 1.367.09 1.496 0 .18.283 2.552.322 2.81l.103 2.023-1.52-.58-3.004-.322-2.269-.232-2.23.18-2.578.271-3.004.683-2.256.542-1.508.09-1.933-.387.98.71.798.463 1.831.452 1.792.051h.013l1.598-.18 2.256-.361 2.204-.361 2.475-.18 1.715-.09 2.062.128 2.797.361 3.61.683.631.413 1.006.876.283.658-.064.49-.541.038-1.057-.49-1.947-.773L46 23.04l-1.34.142.025.257 1.29-.129 1.456.439 1.934.76 1.121.516.812-.052.116-.773zM25.555 12.2l.193-.49 1.07-.683 1.508-.361.915-.09.516.193.142.284zm20.096 9.204-2.823-.361-2.088-.142-1.727.09-2.488.18-2.23.362-2.256.36-1.573.181-1.74-.039-1.78-.438-.747-.438h-.013l.787.155 1.56-.09 2.281-.542 2.978-.67 2.565-.271 2.204-.18 2.243.218 2.965.31 2.114.812 2.475.902.284.194z"/><path fill="#fff" d="M32.71 29.058c.43-.128.691-.525.584-.887-.108-.361-.543-.55-.973-.423s-.692.525-.584.886c.108.362.543.552.973.424M30.608 28.983a.335.335 0 1 0 0-.67.335.335 0 0 0 0 .67M30.402 27.94a.335.335 0 1 0 0-.67.335.335 0 0 0 0 .67M41.32 29.409a.31.31 0 1 0 0-.62.31.31 0 0 0 0 .62M41.281 28.236a.335.335 0 1 0 0-.67.335.335 0 0 0 0 .67M43.125 29.19a.606.606 0 1 0 0-1.212.606.606 0 0 0 0 1.212"/></svg>