<svg version="1.1" viewBox="0 0 32 32" xmlns="http://www.w3.org/2000/svg">
 <circle cx="16" cy="16" r="16" fill="#Cf1011ff"/>
  <path class="st1" d="m16 12.211c2.0864 0 3.7888 1.6896 3.7888 3.7888 0 2.0864-1.6896 3.7888-3.7888 3.7888-2.0864 0-3.7888-1.6896-3.7888-3.7888 0-2.0864 1.6896-3.7888 3.7888-3.7888z" fill="white"/>
  <path class="st1" d="m16.09 6.0928c1.1904 0.013 2.368 0.2432 3.4688 0.6656s2.1248 1.0368 3.0208 1.8304l0.026 0.026c2.0352 1.8176 3.1488 4.2752 3.2896 6.7968 0.1536 2.5344-0.6656 5.12-2.4704 7.168l-0.026 0.026c-1.8176 2.0352-4.2752 3.1488-6.7968 3.2896-2.5344 0.1536-5.12-0.6656-7.168-2.4704-2.048-1.8176-3.1744-4.288-3.3152-6.8224-0.1536-2.5344 0.6656-5.12 2.4704-7.168l0.8576 0.7552c-1.6 1.8048-2.3168 4.096-2.1888 6.336 0.1408 2.24 1.1264 4.4288 2.9312 6.0288s4.096 2.3168 6.336 2.1888c2.24-0.1408 4.4288-1.1264 6.0288-2.9312l0.026-0.026c1.5872-1.8048 2.304-4.0832 2.1632-6.3104-0.1408-2.24-1.1264-4.4288-2.9312-6.0288l-0.026-0.026c-0.7808-0.6912-1.6768-1.2288-2.6368-1.6-0.9728-0.3712-2.0096-0.576-3.0592-0.5888l0.013-1.152z" fill="white"/>
  <path class="st2" d="m10.368 6.1568c0.6912 0 1.3056 0.2816 1.7536 0.7296s0.7296 1.0752 0.7296 1.7536c0 0.6912-0.2816 1.3056-0.7296 1.7536s-1.0752 0.7296-1.7536 0.7296c-0.6912 0-1.3056-0.2816-1.7536-0.7296s-0.7296-1.0752-0.7296-1.7536c0-0.6912 0.2816-1.3056 0.7296-1.7536s1.0752-0.7296 1.7536-0.7296zm0.9472 1.5488c-0.2432-0.2432-0.576-0.3968-0.9472-0.3968s-0.704 0.1536-0.9472 0.3968-0.3968 0.576-0.3968 0.9472 0.1536 0.704 0.3968 0.9472 0.576 0.3968 0.9472 0.3968 0.704-0.1536 0.9472-0.3968 0.3968-0.576 0.3968-0.9472-0.1536-0.704-0.3968-0.9472z" fill="white"/>
</svg>
