<?xml version="1.0" encoding="UTF-8"?>
<svg version="1.1" viewBox="0 0 64 64" xmlns="http://www.w3.org/2000/svg">
 <circle cx="32" cy="32" r="32" fill="#6FBCF0"/>
 <path d="m20.117 45.186c2.4802 4.2962 6.9226 6.8608 11.883 6.8608 4.9604 0 9.4019-2.5646 11.883-6.8608 2.4802-4.2955 2.4802-9.4245 0-13.721l-10.451-18.102c-0.6363-1.1021-2.227-1.1021-2.8632 7e-6l-10.451 18.102c-2.4802 4.2954-2.4802 9.4245 0 13.721zm8.9388-23.211 2.2283-3.8596c0.31819-0.55105 1.1135-0.55105 1.4317 0l8.5724 14.848c1.575 2.7278 1.8706 5.8849 0.88688 8.7739-0.10243-0.47129-0.24555-0.95356-0.43856-1.4407-1.1841-2.9882-3.8615-5.2941-7.9592-6.8542-2.8174-1.0687-4.6157-2.6404-5.3464-4.6718-0.94119-2.6183 0.04186-5.4734 0.62493-6.7957zm-3.7996 6.5813-2.5446 4.4073c-1.9388 3.3581-1.9388 7.367 0 10.725 1.9389 3.3581 5.4106 5.3622 9.2883 5.3622 2.5755 0 4.9726-0.88487 6.8601-2.4631 0.24624-0.61975 1.0085-2.8883 0.06669-5.2264-0.86978-2.1591-2.963-3.8826-6.222-5.1241-3.6838-1.3974-6.0772-3.5789-7.112-6.4822-0.14258-0.39973-0.25328-0.80031-0.33645-1.1989z" clip-rule="evenodd" fill="#fff" fill-rule="evenodd" stroke-width=".77362"/>
</svg>
