<svg version="1.1" viewBox="0 0 64 64" xmlns="http://www.w3.org/2000/svg">
 <circle cx="32" cy="32" r="31" fill="#fff"/>
 <path d="m32 0c17.673 0 32 14.327 32 32s-14.327 32-32 32-32-14.327-32-32c1.9394e-6 -17.673 14.327-32 32-32zm-25.83 34.999c1.4871 12.947 12.485 23.002 25.83 23.002 7.3985 0 14.075-3.0901 18.81-8.0501h-19.101c-8.8921 0-16.274-6.4657-17.702-14.952zm13.967 0c1.3308 5.1495 6.008 8.9534 11.573 8.9534h23.388c1.4189-2.7363 2.3659-5.7566 2.7331-8.9534zm11.578-14.952h-0.0047c-5.5653 0-10.242 3.8038-11.573 8.9533h37.694c-0.36887-3.2112-1.3228-6.2443-2.7523-8.9903zm0.28567-14.049c-13.346 0-24.343 10.055-25.83 23.002h7.8382c1.4273-8.4848 8.807-14.95 17.697-14.952l19.076-0.03016c-4.7331-4.9423-11.398-8.02-18.781-8.02z" stroke-width="1"/>
</svg>
