<svg viewBox="0 0 32 32" fill="none" xmlns="http://www.w3.org/2000/svg"><circle cx="16" cy="16" r="16" fill="#e7ac08"/><path fill-rule="evenodd" clip-rule="evenodd" d="M12.678 15.281c.063.011.107.079.097.151s-.068.122-.131.11l-3.358-.588c.36.5.91.911 1.471 1.05l3.893.756-4.92 2.844c.6.282 1.277.226 1.834-.142l.102-.072 1.814-1.286c.05-.035.117-.018.148.04a.134.134 0 0 1-.034.168l-1.882 1.334a1.46 1.46 0 0 0 1.561-.203l1.434-1.258c.047-.041.114-.031.15.022a.134.134 0 0 1-.02.172l-1.462 1.285c.51.064 1.18-.098 1.6-.45.484-.44 1.088-1.083 1.618-1.376a1.75 1.75 0 0 1 1.149-.207c.312.122.64.18.969.17a.8.8 0 0 1 .524.394c.068-.334-.058-.721-.347-.82a.36.36 0 0 0-.132-.3l-.078-.044-2.086-1.167-2.938-1.645a6.8 6.8 0 0 0-1.37-.545c-.285-.077-.535-.12-.826-.172l-7.052-1.289a2.25 2.25 0 0 0 1.509.983l4.978.9c.063.01.106.078.096.15s-.07.12-.133.11l-3.951-.714c.292.442.72.74 1.197.836l.076.013zm12.59-1.647-4 .739c-.06.01-.118-.038-.128-.11-.009-.072.033-.14.095-.15l5.115-.945c.504-.116.95-.458 1.244-.955l-7.312 1.394c-.586.111-.977.266-1.51.561l-2.384 1.32 1.978 1.095c1.118-.23 2.144-.389 3.263-.62.535-.127 1.005-.501 1.3-1.041l-3.417.631c-.061.01-.119-.038-.128-.11s.033-.14.094-.15l4.44-.82c.512-.11.985-.402 1.352-.839z" fill="#fdfdfc"/></svg>
